<svg width="950" height="727" viewBox="0 0 950 727" fill="none" xmlns="http://www.w3.org/2000/svg">
<g id="Flashcard Container Design">
<rect id="Rectangle 11" width="332.025" height="23.716" rx="11.858" transform="matrix(0.695486 0.71854 -0.695486 0.71854 132.193 471.386)" fill="#004E6B"/>
<rect id="Rectangle 12" width="308.309" height="23.716" rx="11.858" transform="matrix(0.695486 0.71854 -0.695486 0.71854 16.4942 437.647)" fill="#004E6B"/>
<rect id="Rectangle 13" width="118.58" height="23.716" rx="11.858" transform="matrix(0.695486 0.71854 -0.695486 0.71854 102.335 624.659)" fill="#004E6B"/>
<rect id="Rectangle 14" width="332.025" height="23.716" rx="11.858" transform="matrix(0.695486 0.71854 -0.695486 0.71854 719.082 33.7393)" fill="#004E6B"/>
<rect id="Rectangle 15" width="308.316" height="23.7166" rx="11.8583" transform="matrix(0.694482 0.71951 -0.694482 0.71951 603.383 0)" fill="#004E6B"/>
<rect id="Rectangle 17" width="166.012" height="23.716" rx="11.858" transform="matrix(0.695486 0.71854 -0.695486 0.71854 263.753 143.633)" fill="#004E6B"/>
<rect id="Rectangle 18" width="166.012" height="23.716" rx="11.858" transform="matrix(0.695486 0.71854 -0.695486 0.71854 586.588 344.141)" fill="#004E6B"/>
<rect id="Rectangle 16" width="118.58" height="23.716" rx="11.858" transform="matrix(0.695486 0.71854 -0.695486 0.71854 689.224 187.012)" fill="#004E6B"/>
</g>
</svg>
